<svg width="87" height="24" viewBox="0 0 87 24" fill="none" xmlns="http://www.w3.org/2000/svg">
<path d="M10.64 16.76C10.7147 16.92 10.6613 17 10.48 17H9.36C9.24267 17 9.15733 16.984 9.104 16.952C9.05067 16.9093 9.00267 16.8453 8.96 16.76L7.04 13.16H3.12V16.76C3.12 16.92 3.04 17 2.88 17H1.84C1.68 17 1.6 16.92 1.6 16.76V6.04C1.6 5.88 1.68 5.8 1.84 5.8H7.52C9.44 5.8 10.4 6.73333 10.4 8.6V10.36C10.4 10.968 10.304 11.448 10.112 11.8C9.92 12.1413 9.70667 12.4027 9.472 12.584C9.19467 12.7973 8.89067 12.936 8.56 13L10.64 16.76ZM7.52 11.72C8.42667 11.72 8.88 11.2667 8.88 10.36V8.6C8.88 7.69333 8.42667 7.24 7.52 7.24H3.12V11.72H7.52ZM22.4769 14.36C22.4769 16.2267 21.5169 17.16 19.5969 17.16H16.0769C14.1569 17.16 13.1969 16.2267 13.1969 14.36V6.04C13.1969 5.88 13.2769 5.8 13.4369 5.8H14.4769C14.6369 5.8 14.7169 5.88 14.7169 6.04V14.36C14.7169 15.2667 15.1702 15.72 16.0769 15.72H19.5969C20.5035 15.72 20.9569 15.2667 20.9569 14.36V6.04C20.9569 5.88 21.0369 5.8 21.1969 5.8H22.2369C22.3969 5.8 22.4769 5.88 22.4769 6.04V14.36Z" fill="#7E7E82"/>
<path d="M42 15.56C42.16 15.56 42.24 15.64 42.24 15.8V16.76C42.24 16.92 42.1653 17 42.016 17H33.84C33.68 17 33.6 16.92 33.6 16.76V6.056C33.6 5.88533 33.68 5.8 33.84 5.8H41.84C42 5.8 42.08 5.88 42.08 6.04V7C42.08 7.16 42.0053 7.24 41.856 7.24H35.12V10.6H40.4C40.56 10.6 40.64 10.68 40.64 10.84V11.8C40.64 11.96 40.5653 12.04 40.416 12.04H35.12V15.56H42ZM52.115 17C51.891 17 51.731 16.92 51.635 16.76L45.875 8.12H45.795V16.76C45.795 16.92 45.715 17 45.555 17H44.515C44.355 17 44.275 16.92 44.275 16.76V6.04C44.275 5.88 44.355 5.8 44.515 5.8H45.715C45.939 5.8 46.099 5.88 46.195 6.04L51.955 14.68H52.035V6.04C52.035 5.88 52.115 5.8 52.275 5.8H53.315C53.475 5.8 53.555 5.88 53.555 6.04V16.76C53.555 16.92 53.475 17 53.315 17H52.115Z" fill="#1B1C21"/>
<path d="M64.44 8.44C64.44 6.57333 65.4 5.64 67.32 5.64H71C72.92 5.64 73.88 6.57333 73.88 8.44V9.08C73.88 9.24 73.8 9.32 73.64 9.32H72.6C72.44 9.32 72.36 9.24 72.36 9.08V8.44C72.36 7.53333 71.9067 7.08 71 7.08H67.32C66.4133 7.08 65.96 7.53333 65.96 8.44V14.36C65.96 15.2667 66.4133 15.72 67.32 15.72H71C71.9067 15.72 72.36 15.2667 72.36 14.36V13.72C72.36 13.56 72.44 13.48 72.6 13.48H73.64C73.8 13.48 73.88 13.56 73.88 13.72V14.36C73.88 16.2267 72.92 17.16 71 17.16H67.32C65.4 17.16 64.44 16.2267 64.44 14.36V8.44ZM83.84 6.04C83.84 5.88 83.92 5.8 84.08 5.8H85.12C85.28 5.8 85.36 5.88 85.36 6.04V16.76C85.36 16.92 85.28 17 85.12 17H84.08C83.92 17 83.84 16.9253 83.84 16.776V12.04H77.92V16.76C77.92 16.92 77.84 17 77.68 17H76.64C76.48 17 76.4 16.92 76.4 16.76V6.04C76.4 5.88 76.48 5.8 76.64 5.8H77.68C77.84 5.8 77.92 5.88 77.92 6.04V10.6H83.84V6.04Z" fill="#1B1C21"/>
</svg>
