<svg width="104" height="15" viewBox="0 0 104 15" fill="none" xmlns="http://www.w3.org/2000/svg">
<path d="M6.15997 10.9602C6.15997 11.1202 6.07997 11.2002 5.91997 11.2002H5.03997C4.87997 11.2002 4.79997 11.1202 4.79997 10.9602V5.3602C4.79997 4.99753 4.68797 4.70953 4.46397 4.49619C4.25064 4.27219 3.96264 4.16019 3.59997 4.16019H3.03997C2.55997 4.16019 2.15997 4.32019 1.83997 4.64019C1.51997 4.96019 1.35997 5.3602 1.35997 5.8402V10.9602C1.35997 11.1202 1.27997 11.2002 1.11997 11.2002H0.239971C0.0799708 11.2002 -2.92063e-05 11.1202 -2.92063e-05 10.9602V3.28019C-2.92063e-05 3.12019 0.0799708 3.04019 0.239971 3.04019H1.11997C1.27997 3.04019 1.35997 3.12019 1.35997 3.28019V3.8402H1.43997C1.5253 3.65886 1.64797 3.49886 1.80797 3.3602C1.94664 3.24286 2.12797 3.13619 2.35197 3.04019C2.57597 2.93353 2.85864 2.88019 3.19997 2.88019H3.59997C3.96264 2.88019 4.25597 2.93353 4.47997 3.04019C4.71464 3.13619 4.90664 3.24286 5.05597 3.3602C5.21597 3.49886 5.34397 3.65886 5.43997 3.8402H5.51997C5.6053 3.65886 5.7333 3.49886 5.90397 3.3602C6.04264 3.24286 6.2293 3.13619 6.46397 3.04019C6.69864 2.93353 6.9973 2.88019 7.35997 2.88019H8.39997C9.24264 2.88019 9.8773 3.09353 10.304 3.5202C10.7413 3.94686 10.96 4.56019 10.96 5.3602V10.9602C10.96 11.1202 10.88 11.2002 10.72 11.2002H9.83997C9.67997 11.2002 9.59997 11.1202 9.59997 10.9602V5.3602C9.59997 4.99753 9.48797 4.70953 9.26397 4.49619C9.05064 4.27219 8.76264 4.16019 8.39997 4.16019H7.35997C6.9973 4.16019 6.70397 4.27219 6.47997 4.49619C6.26664 4.70953 6.15997 4.99753 6.15997 5.3602V10.9602ZM12.9956 8.7202C12.9956 7.17353 13.7956 6.4002 15.3956 6.4002H18.3556V5.3602C18.3556 4.99753 18.2436 4.70953 18.0196 4.49619C17.8063 4.27219 17.5183 4.16019 17.1556 4.16019H16.0356C15.6729 4.16019 15.3796 4.27219 15.1556 4.49619C14.9423 4.70953 14.8356 4.99753 14.8356 5.3602C14.8356 5.5202 14.7556 5.60019 14.5956 5.60019H13.7156C13.5556 5.60019 13.4756 5.5202 13.4756 5.3602C13.4756 4.56019 13.6889 3.94686 14.1156 3.5202C14.5529 3.09353 15.1929 2.88019 16.0356 2.88019H17.1556C17.9983 2.88019 18.6329 3.09353 19.0596 3.5202C19.4969 3.94686 19.7156 4.56019 19.7156 5.3602V10.9602C19.7156 11.1202 19.6356 11.2002 19.4756 11.2002H18.5956C18.4356 11.2002 18.3556 11.1202 18.3556 10.9602V10.4002H18.2756C18.1903 10.5815 18.0676 10.7415 17.9076 10.8802C17.7689 10.9975 17.5876 11.1042 17.3636 11.2002C17.1396 11.3069 16.8569 11.3602 16.5156 11.3602H15.3956C13.7956 11.3602 12.9956 10.5869 12.9956 9.0402V8.7202ZM14.3556 9.0402C14.3556 9.3602 14.4463 9.6162 14.6276 9.8082C14.8196 9.98953 15.0756 10.0802 15.3956 10.0802H16.6756C17.1556 10.0802 17.5556 9.9202 17.8756 9.6002C18.1956 9.2802 18.3556 8.8802 18.3556 8.4002V7.6802H15.3956C15.0756 7.6802 14.8196 7.7762 14.6276 7.9682C14.4463 8.14953 14.3556 8.4002 14.3556 8.7202V9.0402ZM23.1887 0.00019455C23.3487 0.00019455 23.4287 0.0801945 23.4287 0.240194V1.12019C23.4287 1.28019 23.3487 1.3602 23.1887 1.3602H22.3087C22.1487 1.3602 22.0687 1.28019 22.0687 1.12019V0.240194C22.0687 0.0801945 22.1487 0.00019455 22.3087 0.00019455H23.1887ZM22.3087 11.2002C22.1487 11.2002 22.0687 11.1202 22.0687 10.9602V3.28019C22.0687 3.12019 22.1487 3.04019 22.3087 3.04019H23.1887C23.3487 3.04019 23.4287 3.12019 23.4287 3.28019V10.9602C23.4287 11.1202 23.3487 11.2002 23.1887 11.2002H22.3087ZM26.0306 11.2002C25.8706 11.2002 25.7906 11.1202 25.7906 10.9602V0.240194C25.7906 0.0801945 25.8706 0.00019455 26.0306 0.00019455H26.9106C27.0706 0.00019455 27.1506 0.0801945 27.1506 0.240194V10.9602C27.1506 11.1202 27.0706 11.2002 26.9106 11.2002H26.0306ZM34.7925 8.4002C34.7925 8.77353 34.9791 8.9602 35.3525 8.9602H36.7925C37.2725 8.9602 37.5125 8.7202 37.5125 8.2402V5.8402C37.5125 5.3602 37.2725 5.12019 36.7925 5.12019H35.3525C34.9791 5.12019 34.7925 5.30686 34.7925 5.68019V8.4002ZM41.3525 3.04019C41.3525 2.13353 40.8991 1.68019 39.9925 1.68019H32.4725C31.5658 1.68019 31.1125 2.13353 31.1125 3.04019V11.0402C31.1125 11.9469 31.5658 12.4002 32.4725 12.4002H41.1925C41.3525 12.4002 41.4325 12.4802 41.4325 12.6402V13.5202C41.4325 13.6802 41.3525 13.7602 41.1925 13.7602H32.4725C31.5445 13.7602 30.8458 13.5255 30.3765 13.0562C29.9071 12.5975 29.6725 11.9255 29.6725 11.0402V3.04019C29.6725 2.15486 29.9071 1.48286 30.3765 1.02419C30.8458 0.554862 31.5445 0.320195 32.4725 0.320195H39.9925C40.9205 0.320195 41.6191 0.554862 42.0885 1.02419C42.5578 1.48286 42.7925 2.15486 42.7925 3.04019V7.5202C42.7925 8.4482 42.5685 9.1362 42.1205 9.5842C41.6725 10.0215 40.9631 10.2402 39.9925 10.2402H37.7525C37.5925 10.2402 37.5125 10.1602 37.5125 10.0002V9.7602H37.4325C37.3791 9.87753 37.3045 9.9842 37.2085 10.0802C37.1231 10.1655 37.0165 10.2402 36.8885 10.3042C36.7605 10.3682 36.5951 10.4002 36.3925 10.4002H35.3525C34.6698 10.4002 34.1525 10.2295 33.8005 9.8882C33.4485 9.5362 33.2725 9.0402 33.2725 8.4002V5.68019C33.2725 5.04019 33.4485 4.54953 33.8005 4.2082C34.1525 3.85619 34.6698 3.68019 35.3525 3.68019H36.3925C36.5951 3.68019 36.7605 3.71219 36.8885 3.7762C37.0165 3.84019 37.1231 3.91486 37.2085 4.0002C37.3045 4.0962 37.3791 4.20286 37.4325 4.3202H37.5125V4.08019C37.5125 3.9202 37.5925 3.8402 37.7525 3.8402H38.7925C38.9525 3.8402 39.0325 3.9202 39.0325 4.08019V8.8802H39.9925C40.8991 8.8802 41.3525 8.42686 41.3525 7.5202V3.04019ZM46.3562 8.8802C46.3562 9.24286 46.4629 9.5362 46.6762 9.7602C46.9002 9.97353 47.1936 10.0802 47.5562 10.0802H49.3962C49.7589 10.0802 50.0469 9.97353 50.2602 9.7602C50.4842 9.5362 50.5962 9.24286 50.5962 8.8802V8.4802C50.5962 8.3202 50.6762 8.2402 50.8362 8.2402H51.7162C51.8762 8.2402 51.9562 8.3202 51.9562 8.4802V8.8802C51.9562 9.6802 51.7376 10.2935 51.3002 10.7202C50.8736 11.1469 50.2389 11.3602 49.3962 11.3602H47.5562C46.7136 11.3602 46.0736 11.1469 45.6362 10.7202C45.2096 10.2935 44.9962 9.6802 44.9962 8.8802V5.3602C44.9962 4.56019 45.2096 3.94686 45.6362 3.5202C46.0736 3.09353 46.7136 2.88019 47.5562 2.88019H49.3962C50.2389 2.88019 50.8736 3.09353 51.3002 3.5202C51.7376 3.94686 51.9562 4.56019 51.9562 5.3602V5.7602C51.9562 5.9202 51.8762 6.0002 51.7162 6.0002H50.8362C50.6762 6.0002 50.5962 5.9202 50.5962 5.7602V5.3602C50.5962 4.99753 50.4842 4.70953 50.2602 4.49619C50.0469 4.27219 49.7589 4.16019 49.3962 4.16019H47.5562C47.1936 4.16019 46.9002 4.27219 46.6762 4.49619C46.4629 4.70953 46.3562 4.99753 46.3562 5.3602V8.8802ZM58.4031 9.9202C58.7658 9.9202 59.0538 9.81353 59.2671 9.6002C59.4911 9.3762 59.6031 9.08286 59.6031 8.7202V5.3602C59.6031 4.99753 59.4911 4.70953 59.2671 4.49619C59.0538 4.27219 58.7658 4.16019 58.4031 4.16019H57.0431C56.5631 4.16019 56.1631 4.32019 55.8431 4.64019C55.5231 4.96019 55.3631 5.3602 55.3631 5.8402V9.9202H58.4031ZM55.3631 11.2002V14.0002C55.3631 14.1602 55.2831 14.2402 55.1231 14.2402H54.2431C54.0831 14.2402 54.0031 14.1602 54.0031 14.0002V3.28019C54.0031 3.12019 54.0831 3.04019 54.2431 3.04019H55.1231C55.2831 3.04019 55.3631 3.12019 55.3631 3.28019V3.8402H55.4431C55.5284 3.65886 55.6511 3.49886 55.8111 3.3602C55.9498 3.24286 56.1311 3.13619 56.3551 3.04019C56.5791 2.93353 56.8618 2.88019 57.2031 2.88019H58.4031C59.2458 2.88019 59.8804 3.09353 60.3071 3.5202C60.7444 3.94686 60.9631 4.56019 60.9631 5.3602V8.7202C60.9631 9.5202 60.7444 10.1335 60.3071 10.5602C59.8804 10.9869 59.2458 11.2002 58.4031 11.2002H55.3631ZM62.8425 5.20019C62.8425 3.65353 63.6425 2.88019 65.2425 2.88019H66.8425C67.6851 2.88019 68.3198 3.09353 68.7465 3.5202C69.1838 3.94686 69.4025 4.56019 69.4025 5.3602V5.5202C69.4025 5.6802 69.3225 5.7602 69.1625 5.7602H68.2825C68.1225 5.7602 68.0425 5.6802 68.0425 5.5202V5.3602C68.0425 4.99753 67.9305 4.70953 67.7065 4.49619C67.4931 4.27219 67.2051 4.16019 66.8425 4.16019H65.2425C64.9225 4.16019 64.6665 4.25619 64.4745 4.44819C64.2931 4.62953 64.2025 4.88019 64.2025 5.20019V5.2802C64.2025 5.4402 64.2558 5.57353 64.3625 5.68019C64.4691 5.78686 64.6025 5.86686 64.7625 5.9202L68.2825 7.04019C68.6451 7.15753 68.9491 7.3602 69.1945 7.6482C69.4398 7.9362 69.5625 8.3202 69.5625 8.8002V9.0402C69.5625 10.5869 68.7625 11.3602 67.1625 11.3602H65.2425C64.3998 11.3602 63.7598 11.1469 63.3225 10.7202C62.8958 10.2935 62.6825 9.6802 62.6825 8.8802V8.7202C62.6825 8.5602 62.7625 8.4802 62.9225 8.4802H63.8025C63.9625 8.4802 64.0425 8.5602 64.0425 8.7202V8.8802C64.0425 9.24286 64.1491 9.5362 64.3625 9.7602C64.5865 9.97353 64.8798 10.0802 65.2425 10.0802H67.1625C67.4825 10.0802 67.7331 9.98953 67.9145 9.8082C68.1065 9.6162 68.2025 9.3602 68.2025 9.0402V8.8802C68.2025 8.7202 68.1491 8.58686 68.0425 8.4802C67.9358 8.37353 67.8025 8.29353 67.6425 8.2402L64.1225 7.12019C63.7598 7.00286 63.4558 6.8002 63.2105 6.5122C62.9651 6.2242 62.8425 5.8402 62.8425 5.3602V5.20019ZM71.2031 11.2002C71.0431 11.2002 70.9631 11.1202 70.9631 10.9602V10.0002C70.9631 9.8402 71.0431 9.7602 71.2031 9.7602H72.1631C72.3231 9.7602 72.4031 9.8402 72.4031 10.0002V10.9602C72.4031 11.1202 72.3231 11.2002 72.1631 11.2002H71.2031ZM75.3218 8.8802C75.3218 9.24286 75.4285 9.5362 75.6418 9.7602C75.8658 9.97353 76.1592 10.0802 76.5218 10.0802H78.3618C78.7245 10.0802 79.0125 9.97353 79.2258 9.7602C79.4498 9.5362 79.5618 9.24286 79.5618 8.8802V8.4802C79.5618 8.3202 79.6418 8.2402 79.8018 8.2402H80.6818C80.8418 8.2402 80.9218 8.3202 80.9218 8.4802V8.8802C80.9218 9.6802 80.7032 10.2935 80.2658 10.7202C79.8392 11.1469 79.2045 11.3602 78.3618 11.3602H76.5218C75.6792 11.3602 75.0392 11.1469 74.6018 10.7202C74.1752 10.2935 73.9618 9.6802 73.9618 8.8802V5.3602C73.9618 4.56019 74.1752 3.94686 74.6018 3.5202C75.0392 3.09353 75.6792 2.88019 76.5218 2.88019H78.3618C79.2045 2.88019 79.8392 3.09353 80.2658 3.5202C80.7032 3.94686 80.9218 4.56019 80.9218 5.3602V5.7602C80.9218 5.9202 80.8418 6.0002 80.6818 6.0002H79.8018C79.6418 6.0002 79.5618 5.9202 79.5618 5.7602V5.3602C79.5618 4.99753 79.4498 4.70953 79.2258 4.49619C79.0125 4.27219 78.7245 4.16019 78.3618 4.16019H76.5218C76.1592 4.16019 75.8658 4.27219 75.6418 4.49619C75.4285 4.70953 75.3218 4.99753 75.3218 5.3602V8.8802ZM88.5687 5.3602C88.5687 4.99753 88.4567 4.70953 88.2327 4.49619C88.0194 4.27219 87.7314 4.16019 87.3687 4.16019H85.3687C85.0061 4.16019 84.7127 4.27219 84.4887 4.49619C84.2754 4.70953 84.1687 4.99753 84.1687 5.3602V8.8802C84.1687 9.24286 84.2754 9.5362 84.4887 9.7602C84.7127 9.97353 85.0061 10.0802 85.3687 10.0802H87.3687C87.7314 10.0802 88.0194 9.97353 88.2327 9.7602C88.4567 9.5362 88.5687 9.24286 88.5687 8.8802V5.3602ZM89.9287 8.8802C89.9287 9.6802 89.7101 10.2935 89.2727 10.7202C88.8461 11.1469 88.2114 11.3602 87.3687 11.3602H85.3687C84.5261 11.3602 83.8861 11.1469 83.4487 10.7202C83.0221 10.2935 82.8087 9.6802 82.8087 8.8802V5.3602C82.8087 4.56019 83.0221 3.94686 83.4487 3.5202C83.8861 3.09353 84.5261 2.88019 85.3687 2.88019H87.3687C88.2114 2.88019 88.8461 3.09353 89.2727 3.5202C89.7101 3.94686 89.9287 4.56019 89.9287 5.3602V8.8802ZM98.2881 10.9602C98.2881 11.1202 98.2081 11.2002 98.0481 11.2002H97.1681C97.0081 11.2002 96.9281 11.1202 96.9281 10.9602V5.3602C96.9281 4.99753 96.8161 4.70953 96.5921 4.49619C96.3788 4.27219 96.0908 4.16019 95.7281 4.16019H95.1681C94.6881 4.16019 94.2881 4.32019 93.9681 4.64019C93.6481 4.96019 93.4881 5.3602 93.4881 5.8402V10.9602C93.4881 11.1202 93.4081 11.2002 93.2481 11.2002H92.3681C92.2081 11.2002 92.1281 11.1202 92.1281 10.9602V3.28019C92.1281 3.12019 92.2081 3.04019 92.3681 3.04019H93.2481C93.4081 3.04019 93.4881 3.12019 93.4881 3.28019V3.8402H93.5681C93.6534 3.65886 93.7761 3.49886 93.9361 3.3602C94.0748 3.24286 94.2561 3.13619 94.4801 3.04019C94.7041 2.93353 94.9868 2.88019 95.3281 2.88019H95.7281C96.0908 2.88019 96.3841 2.93353 96.6081 3.04019C96.8428 3.13619 97.0348 3.24286 97.1841 3.3602C97.3441 3.49886 97.4721 3.65886 97.5681 3.8402H97.6481C97.7334 3.65886 97.8614 3.49886 98.0321 3.3602C98.1708 3.24286 98.3574 3.13619 98.5921 3.04019C98.8268 2.93353 99.1254 2.88019 99.4881 2.88019H100.528C101.371 2.88019 102.005 3.09353 102.432 3.5202C102.869 3.94686 103.088 4.56019 103.088 5.3602V10.9602C103.088 11.1202 103.008 11.2002 102.848 11.2002H101.968C101.808 11.2002 101.728 11.1202 101.728 10.9602V5.3602C101.728 4.99753 101.616 4.70953 101.392 4.49619C101.179 4.27219 100.891 4.16019 100.528 4.16019H99.4881C99.1254 4.16019 98.8321 4.27219 98.6081 4.49619C98.3948 4.70953 98.2881 4.99753 98.2881 5.3602V10.9602Z" fill="#1B1C21"/>
</svg>
